<svg fill="none" height="31" viewBox="0 0 123 31" width="123" xmlns="http://www.w3.org/2000/svg"><path d="M8.27 25.872c-1.608 0-3.035-.363-4.28-1.089-1.244-.725-2.22-1.746-2.928-3.061C.354 20.407 0 18.887 0 17.164c0-1.746.343-3.3 1.03-4.66.708-1.36 1.673-2.415 2.896-3.163C5.171 8.57 6.63 8.184 8.303 8.184c1.566 0 2.95.363 4.151 1.089a7.477 7.477 0 012.8 2.993c.687 1.247 1.03 2.642 1.03 4.184 0 .25-.01.51-.032.782 0 .272-.01.556-.032.85H4.087c.086 1.316.515 2.347 1.287 3.096.794.748 1.749 1.122 2.865 1.122.836 0 1.534-.193 2.091-.578a3.71 3.71 0 001.288-1.565H15.8a8.2 8.2 0 01-1.512 2.926 7.325 7.325 0 01-2.575 2.04c-1.008.5-2.156.749-3.443.749zm.033-14.15c-1.008 0-1.899.306-2.671.918-.773.59-1.266 1.497-1.48 2.721H12.1c-.064-1.111-.45-1.995-1.158-2.653s-1.588-.986-2.64-.986zm10.802 13.742V8.592h3.636l.322 2.857a5.843 5.843 0 012.124-2.38c.944-.59 2.05-.885 3.315-.885 1.974 0 3.508.658 4.602 1.973 1.094 1.315 1.641 3.243 1.641 5.782v9.525h-4.119v-9.116c0-1.452-.279-2.563-.837-3.334-.557-.77-1.426-1.156-2.606-1.156-1.159 0-2.114.43-2.865 1.292-.729.862-1.094 2.064-1.094 3.606v8.708zm23.091 0L36.339 8.592h4.312l4.055 12.756 4.055-12.756h4.312l-5.889 16.872zM57.249 5.973c-.751 0-1.373-.238-1.867-.714-.472-.476-.708-1.077-.708-1.803s.236-1.315.708-1.769c.494-.476 1.116-.714 1.867-.714s1.362.238 1.834.714c.493.454.74 1.043.74 1.769s-.247 1.327-.74 1.803c-.472.476-1.083.714-1.834.714zm-2.06 19.49V8.594h4.12v16.87zm14.887.001c-1.673 0-3.014-.431-4.022-1.293-1.009-.862-1.513-2.392-1.513-4.592v-7.347h-2.735v-3.64h2.735l.483-4.524h3.636v4.524h4.313v3.64H68.66v7.381c0 .816.161 1.383.483 1.7.343.296.923.443 1.738.443h1.995v3.708zm13.137.408c-1.609 0-3.036-.363-4.28-1.089-1.245-.725-2.22-1.746-2.929-3.061-.708-1.315-1.062-2.835-1.062-4.558 0-1.746.344-3.3 1.03-4.66.708-1.36 1.674-2.415 2.897-3.163 1.244-.771 2.703-1.157 4.376-1.157 1.566 0 2.95.363 4.152 1.089s2.134 1.723 2.8 2.993c.686 1.247 1.03 2.642 1.03 4.184 0 .25-.011.51-.033.782 0 .272-.01.556-.032.85H79.029c.086 1.316.515 2.347 1.288 3.096.794.748 1.748 1.122 2.864 1.122.837 0 1.534-.193 2.092-.578a3.71 3.71 0 001.287-1.565h4.184a8.198 8.198 0 01-1.513 2.926 7.325 7.325 0 01-2.574 2.04c-1.009.5-2.157.749-3.444.749zm.032-14.15c-1.008 0-1.899.306-2.67.918-.773.59-1.267 1.497-1.481 2.721h7.949c-.065-1.111-.45-1.995-1.159-2.653s-1.588-.986-2.639-.986z" fill="#fff"/><path d="M122.892 15.226v3.682h-8.952l6.33 6.69-2.463 2.604-6.33-6.69v9.46h-3.484V3.16h3.484v9.462l6.33-6.69 2.463 2.604-6.33 6.69zM98.73 8.752l7.87 8.315-7.87 8.316-2.442-2.581 5.425-5.735-5.425-5.734z" fill="#6ccbb2"/></svg>