<svg width="124" height="31" viewBox="0 0 124 31" fill="none" xmlns="http://www.w3.org/2000/svg"><path d="M8.63 25.558c-1.609 0-3.036-.363-4.28-1.089-1.244-.725-2.22-1.746-2.929-3.061C.713 20.093.36 18.573.36 16.85c0-1.746.344-3.3 1.03-4.66.708-1.36 1.674-2.415 2.897-3.163C5.53 8.256 6.989 7.87 8.662 7.87c1.566 0 2.95.363 4.152 1.089a7.478 7.478 0 012.8 2.993c.686 1.247 1.03 2.642 1.03 4.184 0 .25-.011.51-.033.782 0 .272-.01.556-.032.85H4.446c.086 1.316.515 2.348 1.288 3.096.794.748 1.748 1.122 2.864 1.122.837 0 1.534-.192 2.092-.578a3.71 3.71 0 001.287-1.565h4.184a8.2 8.2 0 01-1.513 2.926 7.323 7.323 0 01-2.574 2.04c-1.009.5-2.157.749-3.444.749zm.032-14.15a4.179 4.179 0 00-2.67.918c-.773.59-1.267 1.497-1.481 2.721h7.949c-.065-1.11-.45-1.995-1.159-2.653-.708-.658-1.587-.986-2.639-.986zM19.464 25.15V8.278h3.637l.322 2.857a5.845 5.845 0 012.124-2.38c.944-.59 2.049-.885 3.314-.885 1.974 0 3.508.658 4.603 1.973 1.094 1.315 1.64 3.243 1.64 5.783v9.524h-4.119v-9.116c0-1.452-.278-2.563-.836-3.334-.558-.77-1.427-1.156-2.607-1.156-1.159 0-2.113.43-2.864 1.292-.73.862-1.094 2.064-1.094 3.606v8.708h-4.12zm23.091 0L36.698 8.278h4.313l4.054 12.756 4.056-12.756h4.312l-5.89 16.872h-4.988zM57.608 5.66c-.751 0-1.373-.239-1.867-.715-.472-.476-.708-1.077-.708-1.803s.236-1.315.708-1.769C56.235.897 56.857.66 57.608.66c.75 0 1.362.238 1.834.714.494.454.74 1.043.74 1.769s-.246 1.327-.74 1.803c-.472.476-1.083.714-1.834.714zm-2.06 19.49V8.278h4.12V25.15h-4.12zm14.888 0c-1.674 0-3.015-.431-4.023-1.293-1.008-.862-1.513-2.392-1.513-4.592v-7.347h-2.735v-3.64H64.9l.483-4.524h3.637v4.524h4.312v3.64H69.02v7.381c0 .817.16 1.383.482 1.7.344.296.923.443 1.738.443h1.996v3.708h-2.8zm13.136.408c-1.609 0-3.035-.363-4.28-1.089-1.244-.725-2.22-1.746-2.928-3.061-.708-1.315-1.062-2.835-1.062-4.558 0-1.746.343-3.3 1.03-4.66.708-1.36 1.673-2.415 2.896-3.163 1.244-.771 2.703-1.157 4.377-1.157 1.566 0 2.95.363 4.151 1.089a7.478 7.478 0 012.8 2.993c.686 1.247 1.03 2.642 1.03 4.184 0 .25-.011.51-.032.782 0 .272-.011.556-.033.85H79.39c.086 1.316.515 2.348 1.287 3.096.794.748 1.749 1.122 2.864 1.122.837 0 1.534-.192 2.092-.578a3.71 3.71 0 001.287-1.565h4.184a8.2 8.2 0 01-1.513 2.926 7.323 7.323 0 01-2.574 2.04c-1.009.5-2.156.749-3.444.749zm.033-14.15a4.179 4.179 0 00-2.672.918c-.772.59-1.265 1.497-1.48 2.721h7.95c-.065-1.11-.452-1.995-1.16-2.653-.707-.658-1.587-.986-2.638-.986z" fill="#1F1F1F"/><path d="M123.251 14.912v3.682h-8.952l6.33 6.69-2.463 2.604-6.33-6.69v9.46h-3.483V2.847h3.483v9.462l6.33-6.69 2.463 2.604-6.33 6.69h8.952zM99.09 8.438l7.869 8.316-7.87 8.315-2.442-2.581 5.425-5.734-5.425-5.734 2.442-2.582z" fill="#6CCBB2"/></svg>